# xmcd
#
# Track frame offsets:
#	150
#	17312
#	34542
#	64056
#
# Disc length: 2192 seconds
#
# Revision: 0
# Processed by: cddbd v1.4PL0 Copyright (c) Steve Scherf et al.
# Submitted via: dBpowerAMP V4.0
#
DISCID=22088e04
DTITLE=Dixie Chicks - Landslide
DYEAR=1900
DGENRE=
TTITLE0=Landslide (Sheryl Crow Remix)
TTITLE1=Landslide (Album Version)
TTITLE2=Long Time Gone
TTITLE3=DATA
EXTD=
EXTT0=
EXTT1=
EXTT2=
EXTT3=
PLAYORDER=
